<svg width="74" height="15" viewBox="0 0 74 15" fill="none" xmlns="http://www.w3.org/2000/svg">
<path d="M71.1144 3.41577L68.633 6.19762V3.41577H66.835V10.4479H68.633V7.48677L71.284 10.4479H73.6103L70.3389 6.75981L73.368 3.41577H71.1144Z" fill="white"/>
<path d="M63.6554 6.04254H61.174V3.41577H59.376V10.4479H61.174V7.67094H63.6554V10.4479H65.4534V3.41577H63.6554V6.04254Z" fill="white"/>
<path d="M11.4451 7.22018C11.4014 8.52872 11.2367 8.79043 10.5 8.79043V10.4479H10.7666C12.6082 10.4479 13.0444 9.50285 13.1171 7.39466L13.1898 5.05383H14.9345V10.4479H16.7277V3.41089H11.5856L11.4451 7.22018Z" fill="white"/>
<path d="M21.0608 8.8922H19.8976V7.10872H21.0608C21.686 7.10872 22.0591 7.37527 22.0591 7.97138C22.0591 8.56749 21.6957 8.8922 21.0608 8.8922ZM21.1965 5.54817H19.8976V3.41089H18.0996V10.4479H21.2256C23.1932 10.4479 23.8862 9.16845 23.8862 7.97623C23.8862 6.42052 22.9121 5.54817 21.1965 5.54817Z" fill="white"/>
<path d="M29.7359 8.87765V4.90842C30.2115 4.96338 30.6468 5.20182 30.9491 5.57297C31.2515 5.94411 31.397 6.41862 31.3546 6.89545C31.3982 7.37201 31.253 7.84663 30.9503 8.21728C30.6476 8.58794 30.2116 8.82505 29.7359 8.87765ZM27.9379 8.87765C27.4633 8.82268 27.0288 8.58492 26.7265 8.21485C26.4243 7.84477 26.2782 7.37149 26.3192 6.89545C26.2766 6.42086 26.4201 5.9483 26.7195 5.57754C27.0188 5.20679 27.4505 4.96686 27.9234 4.90842L27.9379 8.87765ZM29.7359 3.2267V0.619324H27.9234V3.2267C26.9806 3.25835 26.0888 3.66212 25.443 4.34967C24.7973 5.03723 24.4501 5.95258 24.4776 6.89545C24.4462 7.84127 24.7914 8.76089 25.4375 9.45238C26.0835 10.1439 26.9776 10.5507 27.9234 10.5836V13.2297H29.7214V10.5836C30.668 10.552 31.5633 10.1457 32.2104 9.45405C32.8575 8.76242 33.2034 7.84208 33.1721 6.89545C33.1902 6.42824 33.1154 5.96208 32.952 5.524C32.7886 5.08591 32.5399 4.6846 32.2203 4.34334C31.9007 4.00209 31.5165 3.72767 31.0901 3.53599C30.6636 3.34431 30.2033 3.23918 29.7359 3.2267Z" fill="white"/>
<path d="M38.1292 7.83571C38.1366 8.00881 38.1072 8.1815 38.0429 8.3424C37.9787 8.5033 37.8811 8.64876 37.7565 8.7692C37.632 8.88963 37.4833 8.9823 37.3203 9.04109C37.1574 9.09989 36.9838 9.12349 36.811 9.11032C36.1664 9.11032 35.6479 8.87284 35.6479 8.17496C35.6479 7.47707 36.2052 7.3753 36.6947 7.3753H38.1486L38.1292 7.83571ZM39.9273 8.29127V5.93106C39.9273 4.21058 38.8271 3.12982 36.9758 3.12982C35.1245 3.12982 34.0679 4.28327 33.9613 5.47549H35.7933C35.8563 5.21863 36.1228 4.75822 36.9758 4.75822C37.134 4.73682 37.295 4.75259 37.4461 4.80427C37.5972 4.85595 37.7341 4.94213 37.846 5.05596C37.958 5.16979 38.0419 5.30815 38.091 5.46005C38.1402 5.61195 38.1533 5.77322 38.1292 5.93106H36.3409C34.7416 5.93106 33.7965 6.77434 33.7965 8.16527C33.7843 8.49811 33.842 8.82982 33.9661 9.13893C34.0901 9.44805 34.2776 9.72768 34.5165 9.95975C34.7555 10.1918 35.0404 10.3711 35.353 10.4861C35.6656 10.6011 35.9989 10.6492 36.3312 10.6273C36.7099 10.6517 37.0886 10.5811 37.4331 10.422C37.7776 10.2629 38.0768 10.0203 38.3037 9.71612C38.4504 9.96496 38.6653 10.1666 38.9229 10.2971C39.1806 10.4277 39.4702 10.4817 39.7576 10.4528H40.3828V8.83407C40.0387 8.83407 39.9273 8.67414 39.9273 8.29127Z" fill="white"/>
<path d="M47.5514 8.65964H45.6128V6.11042H47.5514C48.5497 6.11042 49.1119 6.57083 49.1119 7.38987C49.1119 8.20892 48.5497 8.65964 47.5514 8.65964ZM47.6338 4.40932H45.6176V2.41259H50.2751V0.638794H43.7275V10.448H47.6047C49.7662 10.448 50.9972 9.37691 50.9972 7.40441C51.0311 5.52884 49.7953 4.40932 47.6338 4.40932Z" fill="white"/>
<path d="M56.1097 7.826C56.1177 7.9995 56.0888 8.17273 56.0249 8.33422C55.961 8.49571 55.8635 8.64177 55.7388 8.76274C55.6142 8.8837 55.4653 8.97681 55.302 9.03589C55.1386 9.09498 54.9646 9.11869 54.7914 9.10546C54.1372 9.10546 53.6283 8.86314 53.6283 8.1701C53.6283 7.47706 54.1905 7.37044 54.68 7.37044H56.1339L56.1097 7.826ZM57.9077 8.28157V5.9262C57.9077 4.20087 56.8076 3.12012 54.9611 3.12012C53.1146 3.12012 52.0532 4.27357 51.9466 5.46579H53.764C53.827 5.20893 54.0984 4.75336 54.9465 4.75336C55.1047 4.73196 55.2658 4.74773 55.4168 4.79941C55.5679 4.8511 55.7048 4.93727 55.8168 5.0511C55.9287 5.16494 56.0126 5.30329 56.0618 5.45519C56.1109 5.6071 56.124 5.76836 56.1 5.9262H54.3165C52.7123 5.9262 51.7721 6.76463 51.7721 8.16041C51.7599 8.49282 51.8175 8.82409 51.9413 9.13285C52.065 9.44161 52.2521 9.721 52.4905 9.95299C52.7289 10.185 53.0133 10.3644 53.3253 10.4797C53.6373 10.595 53.97 10.6436 54.3019 10.6224C54.6817 10.6458 55.0612 10.5743 55.4064 10.4144C55.7516 10.2545 56.0516 10.0112 56.2793 9.70642C56.4246 9.9565 56.6392 10.1591 56.8973 10.2899C57.1553 10.4206 57.4456 10.4738 57.7332 10.4431H58.3536V8.82437C58.0337 8.82437 57.9077 8.66928 57.9077 8.28157Z" fill="white"/>
<path d="M0 14.4193H10V12.4193H0V14.4193Z" fill="white"/>
<path d="M6.74016 1.96L9.59016 10.38H7.51016L6.87016 8.38H3.09016L2.41016 10.38H0.410156L3.37016 1.96C3.66016 1.14 3.99016 0.5 5.07016 0.5C6.15016 0.5 6.47016 1.14 6.74016 1.96ZM3.63016 6.69H6.26016L4.99016 2.69L3.63016 6.69Z" fill="white"/>
</svg>
