<svg width="111" height="22" viewBox="0 0 111 22" fill="none" xmlns="http://www.w3.org/2000/svg">
<path d="M0 21.31H16V18.31H0V21.31Z" fill="white"/>
<path d="M5.99965 9.77L7.99965 3.77H8.07965L9.97965 9.77H5.99965ZM10.6596 2.68C10.2496 1.46 9.77965 0.5 8.15965 0.5C6.53965 0.5 5.99965 1.46 5.57965 2.68L1.13965 15.31H4.13965L5.13965 12.31H10.8096L11.8096 15.31H14.9396L10.6596 2.68Z" fill="white"/>
<path d="M106.616 4.79053L102.907 8.94932V4.79053H100.219V15.3034H102.907V10.8766L106.87 15.3034H110.348L105.457 9.78977L109.985 4.79053H106.616Z" fill="white"/>
<path d="M95.4659 8.71747H91.7564V4.79053H89.0684V15.3034H91.7564V11.1519H95.4659V15.3034H98.1539V4.79053H95.4659V8.71747Z" fill="white"/>
<path d="M17.4128 10.4781C17.3476 12.4343 17.1013 12.8255 16 12.8255V15.3034H16.3985C19.1517 15.3034 19.8038 13.8906 19.9125 10.7389L20.0211 7.23941H22.6294V15.3034H25.3102V4.78326H17.6229L17.4128 10.4781Z" fill="white"/>
<path d="M31.7872 12.9777H30.0483V10.3114H31.7872C32.7219 10.3114 33.2797 10.7099 33.2797 11.6011C33.2797 12.4922 32.7363 12.9777 31.7872 12.9777ZM31.9901 7.97843H30.0483V4.78326H27.3604V15.3034H32.0336C34.9751 15.3034 36.0112 13.3907 36.0112 11.6083C36.0112 9.28258 34.5549 7.97843 31.9901 7.97843Z" fill="white"/>
<path d="M44.7566 12.9559V7.02205C45.4676 7.10422 46.1183 7.46069 46.5703 8.01554C47.0223 8.57038 47.2398 9.27977 47.1766 9.99262C47.2416 10.7051 47.0246 11.4146 46.5721 11.9687C46.1196 12.5228 45.4677 12.8773 44.7566 12.9559ZM42.0686 12.9559C41.3591 12.8738 40.7095 12.5183 40.2577 11.9651C39.8059 11.4118 39.5874 10.7043 39.6487 9.99262C39.5851 9.28312 39.7996 8.57665 40.2471 8.02238C40.6946 7.46811 41.3399 7.10942 42.0469 7.02205L42.0686 12.9559ZM44.7566 4.50794V0.609985H42.0469V4.50794C40.6375 4.55525 39.3043 5.15887 38.3389 6.18675C37.3735 7.21462 36.8545 8.58305 36.8955 9.99262C36.8486 11.4066 37.3647 12.7814 38.3306 13.8152C39.2964 14.8489 40.633 15.4571 42.0469 15.5063V19.4622H44.7349V15.5063C46.1501 15.459 47.4885 14.8516 48.4559 13.8176C49.4233 12.7837 49.9404 11.4078 49.8935 9.99262C49.9206 9.29415 49.8088 8.59726 49.5646 7.94233C49.3204 7.2874 48.9486 6.68746 48.4707 6.17729C47.9929 5.66712 47.4186 5.25687 46.781 4.97031C46.1435 4.68375 45.4554 4.5266 44.7566 4.50794Z" fill="white"/>
<path d="M57.3049 11.3982C57.3159 11.657 57.2719 11.9151 57.1758 12.1557C57.0798 12.3962 56.9339 12.6137 56.7477 12.7937C56.5615 12.9738 56.3392 13.1123 56.0956 13.2002C55.8519 13.2881 55.5924 13.3234 55.3342 13.3037C54.3705 13.3037 53.5953 12.9487 53.5953 11.9054C53.5953 10.862 54.4285 10.7099 55.1603 10.7099H57.3339L57.3049 11.3982ZM59.9929 12.0793V8.55081C59.9929 5.97873 58.3482 4.36304 55.5805 4.36304C52.8128 4.36304 51.2333 6.08741 51.0739 7.86975H53.8127C53.9068 7.48575 54.3053 6.79745 55.5805 6.79745C55.817 6.76546 56.0578 6.78903 56.2836 6.86629C56.5094 6.94356 56.7141 7.07239 56.8815 7.24256C57.0489 7.41274 57.1743 7.61957 57.2478 7.84666C57.3213 8.07375 57.3408 8.31484 57.3049 8.55081H54.6314C52.2404 8.55081 50.8276 9.81149 50.8276 11.8909C50.8093 12.3885 50.8956 12.8844 51.081 13.3465C51.2665 13.8086 51.5468 14.2267 51.904 14.5736C52.2612 14.9205 52.6872 15.1886 53.1545 15.3605C53.6218 15.5324 54.12 15.6043 54.6169 15.5715C55.183 15.608 55.7492 15.5026 56.2642 15.2647C56.7791 15.0268 57.2265 14.6641 57.5657 14.2094C57.785 14.5814 58.1062 14.8828 58.4914 15.0779C58.8766 15.2731 59.3096 15.3539 59.7393 15.3106H60.6739V12.8907C60.1595 12.8907 59.9929 12.6516 59.9929 12.0793Z" fill="white"/>
<path d="M71.3904 12.63H68.4922V8.81896H71.3904C72.8829 8.81896 73.7233 9.50726 73.7233 10.7317C73.7233 11.9562 72.8829 12.63 71.3904 12.63ZM71.5135 6.27586H68.4995V3.29081H75.4622V0.639038H65.6738V15.3035H71.47C74.7014 15.3035 76.5417 13.7023 76.5417 10.7534C76.5925 7.94952 74.7449 6.27586 71.5135 6.27586Z" fill="white"/>
<path d="M84.1852 11.3837C84.1972 11.6431 84.154 11.9021 84.0584 12.1435C83.9628 12.3849 83.8171 12.6033 83.6308 12.7841C83.4444 12.965 83.2218 13.1042 82.9776 13.1925C82.7335 13.2808 82.4733 13.3163 82.2144 13.2965C81.2363 13.2965 80.4756 12.9342 80.4756 11.8981C80.4756 10.8621 81.316 10.7027 82.0478 10.7027H84.2214L84.1852 11.3837ZM86.8732 12.0648V8.54359C86.8732 5.96427 85.2285 4.34857 82.468 4.34857C79.7076 4.34857 78.1209 6.07295 77.9615 7.85529H80.6784C80.7726 7.47129 81.1784 6.79023 82.4463 6.79023C82.6828 6.75824 82.9236 6.78181 83.1494 6.85907C83.3752 6.93634 83.5799 7.06517 83.7473 7.23534C83.9147 7.40552 84.0401 7.61235 84.1136 7.83944C84.187 8.06653 84.2066 8.30762 84.1707 8.54359H81.5044C79.1062 8.54359 77.7006 9.79702 77.7006 11.8837C77.6824 12.3806 77.7686 12.8758 77.9535 13.3374C78.1385 13.799 78.4182 14.2167 78.7746 14.5635C79.131 14.9103 79.5561 15.1786 80.0226 15.351C80.489 15.5233 80.9864 15.596 81.4827 15.5643C82.0503 15.5992 82.6178 15.4924 83.1338 15.2533C83.6499 15.0143 84.0983 14.6505 84.4387 14.1949C84.656 14.5688 84.9769 14.8717 85.3626 15.0671C85.7483 15.2626 86.1824 15.3421 86.6123 15.2962H87.5397V12.8763C87.0615 12.8763 86.8732 12.6444 86.8732 12.0648Z" fill="white"/>
</svg>
