<svg width="48" height="48" viewBox="0 0 48 48" fill="none" xmlns="http://www.w3.org/2000/svg">
<path d="M29 34.4L24.5 29.4L20 34.4V16.4H29V34.4Z" fill="#0B1F35" fill-opacity="0.3"/>
<path d="M43 45V27H45V16H4V27H6V45H43ZM5 17H44V26H37V27H42V44H7V27H12V26H5V17ZM37.6 13.6L38.1 14.4C39.9871 13.2331 41.1826 11.2156 41.3 9C41.4745 7.13792 40.7276 5.30815 39.3 4.1C38.0211 3.03255 36.3484 2.55982 34.7 2.8C31.5 3.2 28.1 6 24.4 11C20.7 6 17.3 3.2 14.1 2.8C12.4502 2.53701 10.7681 3.01237 9.5 4.1C8.11007 5.33519 7.37137 7.145 7.5 9C7.65462 11.2042 8.84085 13.2059 10.7 14.4L11.2 13.6C9.60596 12.5818 8.57232 10.8836 8.4 9C8.32032 7.42603 8.98738 5.90662 10.2 4.9C11.249 4.00297 12.634 3.60205 14 3.8C17 4.2 20.4 7 24 12.2L24.4 12.8L24.8 12.2C28.5 7 31.8 4.2 34.8 3.8C36.166 3.60205 37.551 4.00297 38.6 4.9C39.7996 5.90295 40.4032 7.44961 40.2 9C40.192 10.8811 39.2075 12.623 37.6 13.6Z" fill="#0B1F35"/>
</svg>
