<svg width="36" height="36" viewBox="0 0 36 36" fill="none" xmlns="http://www.w3.org/2000/svg">
<path d="M21 26.5L17.5 22.8L14 26.5V12.5H21V26.5Z" fill="#0B1F35" fill-opacity="0.3"/>
<path d="M31 34V20H33V12H2V20H4V34H31ZM3 13H32V19H26V20H30V33H5V20H9V19H3V13ZM26.3 9.1L26.9 9.9C28.1 9.1 28.9 7.7 29 6.2C29.1 4.8 28.6 3.6 27.6 2.8C26.8 2.2 26 1.8 25 1.8C22.8 1.8 20.2 3.7 17.5 7.2C14.8 3.7 12.2 1.8 10 1.8C9.1 1.8 8.2 2.1 7.4 2.8C6.4 3.6 5.9 4.8 6 6.2C6.1 7.7 6.9 9 8.1 9.9L8.7 9.1C7.7 8.4 7.1 7.4 7 6.2C6.9 5.2 7.3 4.2 8 3.7C10.2 1.9 13.3 3.5 16.7 8L17.5 9L18.3 8C21.7 3.5 24.8 1.9 27 3.7C27.7 4.3 28.1 5.2 28 6.2C27.9 7.4 27.3 8.4 26.3 9.1Z" fill="#0B1F35"/>
</svg>
